<svg xmlns="http://www.w3.org/2000/svg" viewBox="0 0 50 50"><defs><style>.a{fill:#1d1e1e;}.b{fill:#fff;}</style></defs><path class="a" d="M47.241,14.723a4.446,4.446,0,0,0-.54-2.22,4.265,4.265,0,0,0-1.61-1.57L27.321.693a4.382,4.382,0,0,0-4.73,0c-2.359,1.44-14.159,8.2-17.679,10.24a4.1,4.1,0,0,0-2.15,3.79v20.6a4.416,4.416,0,0,0,.52,2.18,4.144,4.144,0,0,0,1.63,1.61c3.52,2,15.32,8.8,17.679,10.19a4.362,4.362,0,0,0,4.73,0l17.77-10.19a4.265,4.265,0,0,0,1.63-1.61,4.416,4.416,0,0,0,.52-2.18v-20.6"/><path class="a" d="M25.071,24.953,3.282,37.5a4.144,4.144,0,0,0,1.63,1.61c3.52,2,15.32,8.8,17.679,10.19a4.362,4.362,0,0,0,4.73,0l17.77-10.19a4.265,4.265,0,0,0,1.63-1.61l-21.65-12.55"/><path class="a" d="M47.241,14.723a4.446,4.446,0,0,0-.54-2.22l-21.63,12.45L46.721,37.5a4.416,4.416,0,0,0,.52-2.18v-20.6"/><path class="b" d="M37.9,20.263v2.35h2.34v-2.35h1.18v2.35h2.34v1.17h-2.34v2.35h2.34V27.3h-2.34v2.34h-1.18V27.3H37.9v2.34h-1.17V27.3h-2.35v-1.17h2.35v-2.35h-2.35v-1.17h2.35v-2.35Zm2.34,3.52H37.9v2.35h2.34Z"/><path class="b" d="M25.121,8.483a16.54,16.54,0,0,1,14.31,8.26h0l-7.2,4.14a8.231,8.231,0,0,0-7-4.05h-.09a8.23,8.23,0,1,0,7.15,12.19v.06l7.18,4.16a16.5,16.5,0,0,1-14.17,8.31h-.18a16.54,16.54,0,0,1,0-33.08Z"/></svg>